<?xml version="1.0" encoding="UTF-8"?>
<svg id="_图层_2" data-name="图层 2" xmlns="http://www.w3.org/2000/svg" xmlns:xlink="http://www.w3.org/1999/xlink" viewBox="0 0 454.12 53.43">
  <defs>
    <style>
      .cls-1 {
        fill: #ff005c;
      }

      .cls-2 {
        fill: #fff;
      }

      .cls-3 {
        fill: url(#_未命名的渐变_12);
      }
    </style>
    <linearGradient id="_未命名的渐变_12" data-name="未命名的渐变 12" x1="16.82" y1="-70.33" x2="153.1" y2="-7.43" gradientUnits="userSpaceOnUse">
      <stop offset="0" stop-color="#ff9624"/>
      <stop offset=".15" stop-color="#ff6f32"/>
      <stop offset=".33" stop-color="#ff4741"/>
      <stop offset=".5" stop-color="#ff284c"/>
      <stop offset=".68" stop-color="#ff1255"/>
      <stop offset=".84" stop-color="#ff045a"/>
      <stop offset=".98" stop-color="#ff005c"/>
    </linearGradient>
  </defs>
  <g id="_图层_1-2" data-name="图层 1">
    <g>
      <path class="cls-2" d="M427.4,0H26.71C11.96,0,0,11.96,0,26.71s11.96,26.72,26.71,26.72h400.7c14.76,0,26.72-11.96,26.72-26.72S442.16,0,427.4,0ZM427.4,51.55H26.71c-13.69,0-24.84-11.14-24.84-24.84S13.01,1.87,26.71,1.87h400.7c13.7,0,24.84,11.15,24.84,24.84s-11.14,24.84-24.84,24.84Z"/>
      <path class="cls-3" d="M427.4,51.55H26.71c-13.69,0-24.84-11.14-24.84-24.84S13.01,1.87,26.71,1.87h400.7c13.7,0,24.84,11.15,24.84,24.84s-11.14,24.84-24.84,24.84Z"/>
      <g>
        <g>
          <path class="cls-2" d="M25.37,13.36h-3.08v4.55h-3.59v3.08h3.59v6.3l-3.59.53v3.27l3.59-.53v5.41c0,.43-.35.78-.78.78h-2.38v3.08h3.65c1.43,0,2.59-1.16,2.59-2.59v-7.14l3.13-.47v-3.27l-3.13.47v-5.84h3.13v-3.08h-3.13v-4.55Z"/>
          <polygon class="cls-2" points="42.91 13.36 39.83 13.36 39.83 29.53 29.65 30.4 29.65 33.67 39.83 32.79 39.83 40.07 42.91 40.07 42.91 32.51 46.03 32.23 46.03 28.97 42.91 29.25 42.91 13.36"/>
          <polygon class="cls-2" points="38.23 16.96 30.92 15.65 30.92 18.92 38.23 20.22 38.23 16.96"/>
          <polygon class="cls-2" points="38.23 23.74 30.92 22.44 30.92 25.7 38.23 27.01 38.23 23.74"/>
        </g>
        <g>
          <polygon class="cls-2" points="70.74 19.98 67.48 19.98 66.88 22.42 58.34 22.42 57.75 19.98 54.49 19.98 55.08 22.42 48.92 22.42 48.92 25.5 76.18 25.5 76.18 22.42 70.14 22.42 70.74 19.98"/>
          <polygon class="cls-2" points="75.32 15.53 64.97 15.53 64.47 13.48 60.46 13.48 60.95 15.53 49.79 15.53 49.79 18.62 75.32 18.62 75.32 15.53"/>
          <path class="cls-2" d="M71.12,27.73h-17.14c-1.43,0-2.59,1.16-2.59,2.59v7.05c0,1.43,1.16,2.59,2.59,2.59h17.14c1.43,0,2.59-1.16,2.59-2.59v-7.05c0-1.43-1.16-2.59-2.59-2.59ZM70.81,36.4c0,.43-.35.78-.78.78h-14.97c-.43,0-.78-.35-.78-.78v-1.27h16.52v1.27ZM70.81,32.55h-16.52v-1.26c0-.43.35-.78.78-.78h14.97c.43,0,.78.35.78.78v1.26Z"/>
        </g>
        <g>
          <polygon class="cls-2" points="94.49 13.48 90.48 13.48 91.03 15.49 79.07 15.49 79.07 18.43 106.17 18.43 106.17 15.49 95.05 15.49 94.49 13.48"/>
          <path class="cls-2" d="M99.97,30.53c0-.59-.21-1.13-.57-1.56h1.73l-2.48-4.32h-3.39l1.99,3.46h-9.37s-.05,0-.07,0l1.95-3.46h-3.37l-2.44,4.32h2.07c-.35.42-.57.96-.57,1.56v3.8c0,1.34,1.08,2.42,2.42,2.42h9.68c1.34,0,2.42-1.08,2.42-2.42v-3.8ZM97.1,33.33c0,.26-.21.48-.48.48h-7.81c-.26,0-.48-.21-.48-.48v-1.81c0-.26.21-.48.48-.48h7.81c.26,0,.48.21.48.48v1.81Z"/>
          <path class="cls-2" d="M102.99,20.85h-3.6l.31-1.73h-3.23l-.31,1.72h-7.33l-.3-1.72h-3.23l.3,1.73h-3.33c-1.34,0-2.42,1.08-2.42,2.42v16.53h3.06v-15.27c0-.41.33-.74.74-.74h17.96c.41,0,.74.33.74.74v11.25c0,.68-.55,1.23-1.23,1.23h-1.33v2.94h1.67c2.18,0,3.95-1.77,3.95-3.95v-12.73c0-1.34-1.08-2.42-2.42-2.42Z"/>
        </g>
        <polygon class="cls-2" points="116.52 31.89 114.37 32.45 114.37 21.35 116.52 21.35 116.52 18.42 114.37 18.42 114.37 14.18 111.28 14.18 111.28 18.42 109.13 18.42 109.13 21.35 111.28 21.35 111.28 33.24 109.13 33.79 109.13 37.06 116.52 35.16 116.52 31.89"/>
        <path class="cls-2" d="M132.71,33.81c1.63-2.57,2.87-6.28,2.87-11.25h-3.12c.1,2.87-.38,5.4-1.18,7.44-.35-1.69-.56-3.71-.72-6.07-.12-1.81-.21-3.12-.28-4.22h5.95v-2.94h-.75l-.73-2.66h-2.78l.73,2.66h-2.59c-.05-.96-.09-1.96-.14-3.3h-3.18s.05,1.35.15,3.3h-6.92c-1.34,0-2.42,1.08-2.42,2.42v13.91c0,2.37-.5,2.67-1.89,3.28v3.58c3.46-.95,4.95-3.17,4.95-6.94v-7.87h1.68c.41,0,.74.33.74.74v7.54c0,.46-.37.83-.83.83h-1.15v2.94h2.51c1.4,0,2.53-1.13,2.53-2.53v-9.96c0-1.37-1.11-2.49-2.49-2.49h-2.99v-1.77c0-.41.33-.74.74-.74h5.7c.11,1.97.26,4.13.43,6.07.21,2.35.45,5.34,1.45,7.97-.71.72-1.46,1.2-2.19,1.38v3.12c1,0,2.34-.57,3.68-1.76,1.25,1.64,3.07,2.88,5.76,3.3v-3.73c-1.59-.28-2.71-1.04-3.52-2.25Z"/>
      </g>
      <path class="cls-2" d="M174.98,49.42c-12.52,0-22.72-10.19-22.72-22.71s10.2-22.71,22.72-22.71h252.4c12.52,0,22.71,10.19,22.71,22.71s-10.19,22.71-22.71,22.71h-252.4Z"/>
      <path class="cls-1" d="M433.97,26.7c0-6.71-5.45-12.16-12.16-12.16s-12.16,5.45-12.16,12.16,5.45,12.16,12.16,12.16c2.87,0,5.51-1,7.59-2.67l4.69,4.68,1.88-1.88-4.68-4.69c1.67-2.08,2.67-4.71,2.67-7.59ZM421.82,36.2c-5.24,0-9.49-4.27-9.49-9.51s4.26-9.51,9.49-9.51,9.51,4.27,9.51,9.51-4.27,9.51-9.51,9.51Z"/>
    </g>
  </g>
</svg>